mtllib materials.mtl
v -0.3766587 -0.2329106 -0.008220717
v -0.3766588 -0.2329107 0.07177928
v -0.3766588 0.3270893 0.07177967
v -0.3766587 0.3270893 -0.00822033
v -0.4566587 -0.2329106 -0.008220792
v -0.4566587 0.3270893 -0.008220404
v -0.4566588 0.3270893 0.07177959
v -0.4566588 -0.2329107 0.07177921
v 0.5033412 -0.2329106 -0.008220598
v 0.5033412 -0.2329106 0.0717794
v 0.5033412 0.3270893 0.0717795
v 0.5033412 0.3270893 -0.008220494
v 0.4233412 -0.2329106 -0.008220628
v 0.4233412 0.3270893 -0.008220524
v 0.4233412 0.3270893 0.07177947
v 0.4233412 -0.2329106 0.07177937
v -0.4900637 0.1616029 -0.006008312
v 0.3985661 -0.2426916 0.1582558
v 0.4300467 -0.1734639 0.1583394
v -0.458583 0.2308304 -0.005924702
v -0.5001444 0.1661077 0.05961246
v -0.4686637 0.2353352 0.05969606
v 0.4199664 -0.1689591 0.2239603
v 0.3884856 -0.2381868 0.2238766
v -0.4441268 -0.2494438 -0.1296529
v 0.5308371 -0.1447443 0.006669208
v 0.5231243 -0.06914282 0.003765643
v -0.4518394 -0.1738423 -0.1325564
v -0.4535046 -0.2478711 -0.06379253
v -0.4612173 -0.1722696 -0.06669608
v 0.5137469 -0.06756997 0.069626
v 0.5214595 -0.1431715 0.07252953
v -0.5079516 -0.2347245 -0.03764667
v -0.5160042 -0.2310343 -0.03300586
v -0.5356172 -0.2132202 -0.08120333
v -0.5275646 -0.2169105 -0.08584411
v -0.5126886 -0.243436 -0.03893888
v -0.5323015 -0.2256221 -0.08713631
v -0.5403541 -0.2219318 -0.08249553
v -0.5207412 -0.2397458 -0.03429809
v -0.520124 -0.2070309 -0.1023375
v -0.5442818 -0.19596 -0.08841509
v -0.5584928 -0.2220948 -0.09229168
v -0.5343349 -0.2331656 -0.1062141
v 0.4668203 -0.1068242 0.03003433
v 0.4693 -0.0973655 0.02794035
v 0.4828455 -0.1122484 -0.02324578
v 0.4803658 -0.1217071 -0.0211518
v 0.457451 -0.1050321 0.02703384
v 0.4709964 -0.119915 -0.02415228
v 0.4734761 -0.1104563 -0.02624626
v 0.4599307 -0.09557343 0.02493985
v 0.4909497 -0.1370168 -0.03001718
v 0.4983889 -0.1086408 -0.03629917
v 0.4702806 -0.1032646 -0.0453006
v 0.4628415 -0.1316406 -0.03901862
v 0.4758618 0.2426394 0.01814753
v 0.4758343 0.2517185 0.01395601
v 0.4772129 0.2286758 -0.03596528
v 0.4772404 0.2195967 -0.03177376
v 0.465865 0.2425094 0.01793146
v 0.4672436 0.2194667 -0.0319898
v 0.4672161 0.2285458 -0.03618132
v 0.4658375 0.2515885 0.01373994
v 0.4876407 0.2043632 -0.04098111
v 0.4875582 0.2316006 -0.05355564
v 0.4575678 0.2312106 -0.05420375
v 0.4576502 0.2039732 -0.04162923
v -0.4258607 0.1750919 0.05132069
v -0.4239682 0.1848413 0.05015127
v -0.4167833 0.1769743 -0.003806964
v -0.4186757 0.167225 -0.002637535
v -0.4355927 0.1767957 0.04977638
v -0.4284077 0.1689289 -0.004181817
v -0.4265153 0.1786782 -0.005351245
v -0.4337002 0.1865451 0.04860695
v -0.4088767 0.1536262 -0.01463971
v -0.4031993 0.1828744 -0.01814799
v -0.4323953 0.187986 -0.02278084
v -0.4380727 0.1587378 -0.01927257
vn 1 1.388363E-09 8.742277E-07
vn -1 -1.388363E-09 -8.742277E-07
vn 3.594461E-13 -1 -7.608496E-07
vn -3.594461E-13 1 7.608496E-07
vn 8.830087E-07 6.993823E-07 -1
vn -8.830087E-07 -6.993823E-07 1
vn 1 -1.937514E-09 3.496911E-07
vn -1 4.823228E-10 -3.496911E-07
vn -7.820457E-14 -1 1.362162E-07
vn -1.53839E-13 1 5.273511E-07
vn 3.584721E-07 1.748456E-07 -1
vn -3.468306E-07 -1.881502E-07 1
vn 0.1514888 -0.06769735 -0.986138
vn -0.1514888 0.06769729 0.986138
vn -0.4139498 -0.9102991 -0.001099482
vn 0.4139499 0.910299 0.001098589
vn -0.8976055 0.4083787 -0.1659253
vn 0.897606 -0.4083793 0.1659216
vn 0.1409259 -0.0236348 -0.989738
vn -0.1409259 0.02363496 0.989738
vn 0.1014174 -0.9941111 0.03817967
vn -0.1014174 0.9941111 -0.03817967
vn -0.9848116 -0.1057562 -0.1377015
vn 0.9848123 0.1057561 0.1376966
vn 0.4736978 0.8711556 0.1292216
vn -0.4736978 -0.8711556 -0.1292216
vn 0.356599 -0.3238916 0.876317
vn -0.3566003 0.3238891 -0.8763173
vn 0.8052623 -0.3690292 -0.46408
vn -0.8052623 0.3690292 0.46408
vn 0.5919461 0.5451844 0.5936109
vn -0.1963334 -0.9045072 0.3785762
vn -0.4722123 0.1273895 0.8722314
vn 0.8678249 -0.4867122 0.09995582
vn 0.9369397 -0.1792043 0.30005
vn -0.9369397 0.1792043 -0.30005
vn -0.2462825 0.2705984 0.9306564
vn 0.2462799 -0.2705979 -0.9306573
vn -0.2479706 -0.945866 0.2093994
vn 0.2479706 0.945866 -0.2093994
vn 0.6429696 0.0009933555 0.7658911
vn -0.9161927 0.2992082 0.2665809
vn 0.06971245 0.9371087 0.3420051
vn -0.3429355 -0.6369072 0.6904669
vn 0.9996821 0.01300128 0.02160573
vn -0.9996821 -0.01300128 -0.02160573
vn -0.02506641 0.4189582 0.9076595
vn 0.02506362 -0.4189582 -0.9076595
vn 0.002748836 -0.9079125 0.4191508
vn -0.002748858 0.9079125 -0.4191508
vn 0.8178828 0.2432133 0.5214546
vn -0.8456885 0.2215792 0.4855035
vn -0.01618994 0.987825 0.1547245
vn -0.01161561 -0.5230325 0.8522336
vn 0.973201 -0.1703848 0.1544305
vn -0.973201 0.1703848 -0.1544305
vn -0.1306362 0.1430344 0.9810583
vn 0.1306335 -0.1430339 -0.9810587
vn -0.1892463 -0.9749412 0.1169426
vn 0.1892463 0.9749412 -0.1169426
vn 0.7372899 -0.062428 0.672686
vn -0.8822148 0.2211098 0.4157013
vn 0.08499999 0.8905409 0.4468914
vn -0.2299248 -0.731859 0.6414959
vt 0.04429052 0.09125431
vt 0.05080037 0.08660439
vt 0.0833498 0.1321734
vt 0.07683994 0.1368233
vt -0.04429052 0.09125431
vt -0.07683994 0.1368233
vt -0.0833498 0.1321734
vt -0.05080037 0.08660439
vt -0.04594366 -0.07809726
vt -0.04863437 -0.08563119
vt -0.04110043 -0.08832189
vt -0.03840973 -0.08078796
vt 0.04594367 -0.07809726
vt 0.03840973 -0.08078796
vt 0.04110043 -0.08832189
vt 0.04863437 -0.08563119
vt -0.1292447 -0.03488268
vt -0.1793326 -0.009838724
vt -0.1829103 -0.01699414
vt -0.1328224 -0.0420381
vt 0.1292447 -0.03488268
vt 0.1328224 -0.04203809
vt 0.1829104 -0.01699414
vt 0.1793326 -0.009838721
vt 0.0442904 0.09125438
vt 0.05080026 0.08660447
vt 0.08334963 0.1321735
vt 0.07683976 0.1368234
vt -0.0442904 0.09125438
vt -0.07683976 0.1368234
vt -0.08334963 0.1321735
vt -0.05080026 0.08660447
vt -0.01634594 0.004775974
vt -0.01903663 -0.00275796
vt -0.0115027 -0.005448654
vt -0.008812005 0.00208528
vt 0.01634602 0.004776008
vt 0.008812084 0.002085312
vt 0.01150278 -0.005448622
vt 0.01903671 -0.002757926
vt -0.08988993 0.04382693
vt -0.1399778 0.06887089
vt -0.1435556 0.06171547
vt -0.09346764 0.03667151
vt 0.08988993 0.04382693
vt 0.09346764 0.03667151
vt 0.1435556 0.06171547
vt 0.1399778 0.06887089
vt -0.1713365 -0.0193568
vt -0.09137565 0.03901488
vt -0.09585962 0.04515728
vt -0.1758205 -0.0132144
vt 0.1713365 -0.01935681
vt 0.1758205 -0.01321441
vt 0.0958596 0.0451573
vt 0.09137564 0.03901488
vt -0.08267087 -0.1251832
vt -0.0773241 -0.1291445
vt -0.01838965 -0.04959745
vt -0.02373644 -0.04563615
vt 0.0826707 -0.1251833
vt 0.02373633 -0.04563621
vt 0.01838953 -0.04959749
vt 0.07732392 -0.1291446
vt -0.04774132 0.07125588
vt -0.05135915 0.07794514
vt -0.05721226 0.07477953
vt -0.05359442 0.06809027
vt 0.04774085 0.07125619
vt 0.05359396 0.0680906
vt 0.05721179 0.07477988
vt 0.05135867 0.07794546
vt -0.1339581 -0.03967852
vt -0.09608675 0.0517915
vt -0.1031132 0.05470068
vt -0.1409846 -0.03676933
vt 0.1339581 -0.03967852
vt 0.1409846 -0.03676934
vt 0.1031132 0.05470071
vt 0.09608674 0.05179151
vt -0.05027045 -0.07327901
vt -0.04429067 -0.07619831
vt -0.0008587076 0.01276612
vt -0.006838483 0.01568541
vt 0.05027044 -0.073279
vt 0.006838486 0.01568541
vt 0.0008587016 0.01276614
vt 0.04429067 -0.07619831
vt -0.0743923 0.08017088
vt -0.08019228 0.08508974
vt -0.0844963 0.08001475
vt -0.07869631 0.07509588
vt 0.07439185 0.08017145
vt 0.07869588 0.07509649
vt 0.08449584 0.08001538
vt 0.08019181 0.08509035
vt 0.1016035 -0.09577277
vt 0.1017523 -0.09676164
vt 0.1071911 -0.09594346
vt 0.1070423 -0.09495459
vt -0.1016035 -0.09577278
vt -0.1070423 -0.09495459
vt -0.1071911 -0.09594345
vt -0.1017523 -0.09676165
vt 0.1054243 -0.0473572
vt 0.1047508 -0.04809636
vt 0.1054899 -0.04876989
vt 0.1061635 -0.04803073
vt -0.1053589 -0.0459443
vt -0.1075763 -0.0479649
vt -0.1055558 -0.05018238
vt -0.1033383 -0.04816178
vt -0.08053733 0.04737877
vt -0.08598638 0.04812573
vt -0.08612218 0.04713499
vt -0.08067314 0.04638804
vt 0.08053733 0.04737879
vt 0.08067314 0.04638805
vt 0.08612218 0.047135
vt 0.08598638 0.04812574
vt 0.1431977 -0.03237001
vt 0.1452427 -0.03210954
vt 0.1434677 -0.029691
vt 0.142606 -0.03156383
vt -0.003418003 -0.1236417
vt -0.005476324 -0.1235263
vt -0.004170277 -0.1262271
vt -0.002982656 -0.124542
vt 0.1410723 -0.01762717
vt 0.1423866 -0.01921545
vt 0.1434801 -0.01642181
vt 0.1414368 -0.01669596
vt 0.005866974 0.03871649
vt 0.004861086 0.04051599
vt 0.003281177 0.03796571
vt 0.005340339 0.0378664
vt 0.06953426 0.08502428
vt 0.070021 0.08589782
vt 0.0652165 0.0885749
vt 0.06472976 0.08770136
vt -0.06953426 0.08502428
vt -0.06472976 0.08770137
vt -0.0652165 0.0885749
vt -0.070021 0.08589783
vt 0.09450073 0.05975663
vt 0.09523292 0.05907553
vt 0.09591402 0.05980772
vt 0.09518184 0.06048882
vt -0.09308751 0.05970545
vt -0.09513083 0.06190201
vt -0.0973274 0.0598587
vt -0.09528408 0.05766214
vt 0.001964681 -0.03438879
vt -0.002753628 -0.03156256
vt -0.003267486 -0.03242043
vt 0.001450822 -0.03524667
vt -0.001964685 -0.03438879
vt -0.001450826 -0.03524666
vt 0.003267481 -0.03242043
vt 0.002753624 -0.03156256
vt 0.09588532 0.05882036
vt 0.0952973 0.06079627
vt 0.09319793 0.05865322
vt 0.09518553 0.05810601
vt 0.01047895 0.1077172
vt 0.01222695 0.1066242
vt 0.01238388 0.1096201
vt 0.01053126 0.1087158
vt 0.05482142 0.01628566
vt 0.05677563 0.01694223
vt 0.05456067 0.01896558
vt 0.0540831 0.01696011
vt 0.07393836 -0.02138848
vt 0.07204672 -0.02056891
vt 0.07233907 -0.02355463
vt 0.07403581 -0.02238372
vt 0.07931849 0.125287
vt 0.07954501 0.126261
vt 0.07418798 0.1275069
vt 0.07396145 0.1265329
vt -0.07931848 0.125287
vt -0.07396145 0.1265329
vt -0.07418797 0.1275069
vt -0.07954501 0.126261
vt 0.121053 0.07035692
vt 0.1215686 0.06950012
vt 0.1224254 0.07001577
vt 0.1219098 0.07087256
vt -0.1196806 0.07069794
vt -0.122251 0.07224488
vt -0.123798 0.06967448
vt -0.1212276 0.06812753
vt 0.04810814 -0.008892993
vt 0.04266123 -0.008130614
vt 0.04252262 -0.00912096
vt 0.04796953 -0.009883338
vt -0.04810814 -0.008892989
vt -0.04796952 -0.009883334
vt -0.04252262 -0.009120956
vt -0.04266123 -0.00813061
vt 0.1298616 0.06637718
vt 0.1294026 0.06838698
vt 0.1271691 0.06638415
vt 0.1291171 0.06570958
vt 0.05464228 0.1333923
vt 0.05551096 0.1315227
vt 0.05727693 0.1339479
vt 0.05523094 0.1342007
vt 0.03969478 0.01443187
vt 0.04174917 0.01426024
vt 0.04051742 0.01699571
vt 0.03928419 0.01534369
vt 0.1116066 0.02207202
vt 0.1096326 0.02266626
vt 0.1102698 0.01973473
vt 0.111819 0.02109484
vt 0.07855277 0.09426001
vt 0.07904793 0.0951288
vt 0.07426955 0.09785222
vt 0.07377438 0.09698343
vt -0.07855277 0.09426001
vt -0.07377438 0.09698343
vt -0.07426955 0.09785222
vt -0.07904793 0.0951288
vt 0.1679494 -0.009765496
vt 0.1686026 -0.01052267
vt 0.1693598 -0.009869472
vt 0.1687066 -0.009112289
vt -0.166539 -0.009661661
vt -0.1688106 -0.00770206
vt -0.1707702 -0.009973609
vt -0.1684987 -0.01193322
vt -0.03230911 -0.1146024
vt -0.03724477 -0.1121756
vt -0.037686 -0.113073
vt -0.03275033 -0.1154998
vt 0.0323091 -0.1146024
vt 0.03275033 -0.1154998
vt 0.037686 -0.113073
vt 0.03724477 -0.1121756
vt 0.1429867 0.02286275
vt 0.1425295 0.02487296
vt 0.1402942 0.02287216
vt 0.1422416 0.02219582
vt 0.07151271 0.1104281
vt 0.07312392 0.109142
vt 0.07362319 0.1121002
vt 0.07167913 0.1114142
vt 0.1189218 -0.05235453
vt 0.1209339 -0.05190565
vt 0.1189424 -0.04966202
vt 0.1182579 -0.05160665
vt 0.08829175 -0.1112514
vt 0.08642404 -0.1103786
vt 0.08663182 -0.1133714
vt 0.08836101 -0.112249
o group320382041
g mesh320382041
usemtl mat20
f 4/4/1 3/3/1 2/2/1 1/1/1
f 8/8/2 7/7/2 6/6/2 5/5/2
f 2/12/3 8/11/3 5/10/3 1/9/3
f 6/16/4 7/15/4 3/14/4 4/13/4
f 5/20/5 6/19/5 4/18/5 1/17/5
f 3/24/6 7/23/6 8/22/6 2/21/6
o group251762872
g mesh251762872
usemtl mat20
f 12/28/7 11/27/7 10/26/7 9/25/7
f 16/32/8 15/31/8 14/30/8 13/29/8
f 10/36/9 16/35/9 13/34/9 9/33/9
f 14/40/10 15/39/10 11/38/10 12/37/10
f 13/44/11 14/43/11 12/42/11 9/41/11
f 11/48/12 15/47/12 16/46/12 10/45/12
o group1089299160
g mesh1089299160
usemtl mat20
f 20/52/13 19/51/13 18/50/13 17/49/13
f 24/56/14 23/55/14 22/54/14 21/53/14
f 18/60/15 24/59/15 21/58/15 17/57/15
f 22/64/16 23/63/16 19/62/16 20/61/16
f 21/68/17 22/67/17 20/66/17 17/65/17
f 19/72/18 23/71/18 24/70/18 18/69/18
o group1665241248
g mesh1665241248
usemtl mat20
f 28/76/19 27/75/19 26/74/19 25/73/19
f 32/80/20 31/79/20 30/78/20 29/77/20
f 26/84/21 32/83/21 29/82/21 25/81/21
f 30/88/22 31/87/22 27/86/22 28/85/22
f 29/92/23 30/91/23 28/90/23 25/89/23
f 27/96/24 31/95/24 32/94/24 26/93/24
o group2106241547
g mesh2106241547
usemtl mat16
f 36/100/25 35/99/25 34/98/25 33/97/25
f 40/104/26 39/103/26 38/102/26 37/101/26
f 34/108/27 40/107/27 37/106/27 33/105/27
f 44/112/28 43/111/28 42/110/28 41/109/28
f 37/116/29 38/115/29 36/114/29 33/113/29
f 35/120/30 39/119/30 40/118/30 34/117/30
f 36/124/31 41/123/31 42/122/31 35/121/31
f 39/128/32 43/127/32 44/126/32 38/125/32
f 35/132/33 42/131/33 43/130/33 39/129/33
f 38/136/34 44/135/34 41/134/34 36/133/34
o group1276911870
g mesh1276911870
usemtl mat16
f 48/140/35 47/139/35 46/138/35 45/137/35
f 52/144/36 51/143/36 50/142/36 49/141/36
f 46/148/37 52/147/37 49/146/37 45/145/37
f 56/152/38 55/151/38 54/150/38 53/149/38
f 49/156/39 50/155/39 48/154/39 45/153/39
f 47/160/40 51/159/40 52/158/40 46/157/40
f 48/164/41 53/163/41 54/162/41 47/161/41
f 51/168/42 55/167/42 56/166/42 50/165/42
f 47/172/43 54/171/43 55/170/43 51/169/43
f 50/176/44 56/175/44 53/174/44 48/173/44
o group423761238
g mesh423761238
usemtl mat16
f 60/180/45 59/179/45 58/178/45 57/177/45
f 64/184/46 63/183/46 62/182/46 61/181/46
f 58/188/47 64/187/47 61/186/47 57/185/47
f 68/192/48 67/191/48 66/190/48 65/189/48
f 61/196/49 62/195/49 60/194/49 57/193/49
f 59/200/50 63/199/50 64/198/50 58/197/50
f 60/204/51 65/203/51 66/202/51 59/201/51
f 63/208/52 67/207/52 68/206/52 62/205/52
f 59/212/53 66/211/53 67/210/53 63/209/53
f 62/216/54 68/215/54 65/214/54 60/213/54
o group888554014
g mesh888554014
usemtl mat16
f 72/220/55 71/219/55 70/218/55 69/217/55
f 76/224/56 75/223/56 74/222/56 73/221/56
f 70/228/57 76/227/57 73/226/57 69/225/57
f 80/232/58 79/231/58 78/230/58 77/229/58
f 73/236/59 74/235/59 72/234/59 69/233/59
f 71/240/60 75/239/60 76/238/60 70/237/60
f 72/244/61 77/243/61 78/242/61 71/241/61
f 75/248/62 79/247/62 80/246/62 74/245/62
f 71/252/63 78/251/63 79/250/63 75/249/63
f 74/256/64 80/255/64 77/254/64 72/253/64
