mtllib materials.mtl
v -0.3994426 -0.2907467 -0.01804765
v -0.3994426 -0.2907467 0.06195235
v -0.3994426 0.2692533 0.06195274
v -0.3994426 0.2692533 -0.01804726
v -0.4794426 -0.2907467 -0.01804772
v -0.4794426 0.2692533 -0.01804733
v -0.4794426 0.2692533 0.06195267
v -0.4794426 -0.2907467 0.06195228
v 0.4805574 -0.2907467 -0.01804753
v 0.4805573 -0.2907467 0.06195247
v 0.4805573 0.2692533 0.06195258
v 0.4805574 0.2692533 -0.01804742
v 0.4005574 -0.2907467 -0.01804756
v 0.4005574 0.2692533 -0.01804745
v 0.4005573 0.2692533 0.06195255
v 0.4005573 -0.2907467 0.06195244
v -0.4849101 0.1237409 -0.01281604
v 0.5042001 0.08196616 -0.008843392
v 0.5074096 0.1579477 -0.008953899
v -0.4817006 0.1997224 -0.01292652
v -0.485173 0.1238488 0.05372658
v -0.4819634 0.1998303 0.05361609
v 0.5071471 0.1580557 0.05758871
v 0.5039374 0.08207405 0.05769919
v -0.4886105 -0.1327901 -0.01069012
v 0.4992127 -0.1983941 -0.01190823
v 0.5042522 -0.1225657 -0.009047553
v -0.4835709 -0.05696189 -0.007829398
v -0.4886949 -0.1352931 0.05580595
v -0.4836554 -0.05946493 0.05866665
v 0.5041682 -0.1250688 0.05744849
v 0.4991285 -0.2008971 0.0545878
v -0.4372807 -0.1021832 0.02856252
v -0.4366822 -0.09229267 0.02721392
v -0.4274566 -0.1001657 -0.0264322
v -0.4280552 -0.1100563 -0.0250836
v -0.4471208 -0.1018256 0.02681781
v -0.4378953 -0.1096987 -0.02682827
v -0.4372968 -0.0998081 -0.02817687
v -0.4465223 -0.09193504 0.02546921
v -0.4162976 -0.1224517 -0.03662109
v -0.4145019 -0.09277999 -0.04066689
v -0.4440224 -0.09170711 -0.04590091
v -0.445818 -0.1213788 -0.0418551
v 0.441375 -0.1779507 0.03228274
v 0.4419273 -0.1683134 0.03489369
v 0.443619 -0.1540284 -0.01819187
v 0.4430668 -0.1636657 -0.02080281
v 0.4313951 -0.1773374 0.03212973
v 0.4330868 -0.1630523 -0.0209558
v 0.433639 -0.1534151 -0.01834486
v 0.4319473 -0.1677001 0.03474067
v 0.452956 -0.1700203 -0.03773865
v 0.4546126 -0.1411084 -0.02990581
v 0.4246726 -0.1392685 -0.03036478
v 0.423016 -0.1681805 -0.03819762
v 0.4489131 0.1252248 0.02502961
v 0.4498691 0.1349666 0.02298386
v 0.4550822 0.1232245 -0.03049463
v 0.4541262 0.1134828 -0.02844886
v 0.4390041 0.1259605 0.02390215
v 0.4442173 0.1142185 -0.0295763
v 0.4451733 0.1239601 -0.03162207
v 0.4399601 0.1357023 0.0218564
v 0.4645009 0.09980309 -0.03986071
v 0.4673689 0.1290282 -0.04599799
v 0.437642 0.1312351 -0.0493803
v 0.434774 0.10201 -0.04324302
v -0.4197645 0.1372468 0.0281644
v -0.4204545 0.1469989 0.03026746
v -0.4308226 0.1576835 -0.02267917
v -0.4301325 0.1479315 -0.02478223
v -0.4295609 0.1361861 0.02986869
v -0.439929 0.1468707 -0.02307789
v -0.440619 0.1566228 -0.02097483
v -0.4302509 0.1459382 0.03197175
v -0.4224738 0.1421542 -0.04302958
v -0.4245438 0.1714101 -0.0367204
v -0.4539331 0.168228 -0.03160743
v -0.4518631 0.138972 -0.03791662
vn 1 1.388363E-09 8.742277E-07
vn -1 -1.388363E-09 -8.742277E-07
vn 3.594461E-13 -1 -7.608496E-07
vn -3.594461E-13 1 7.608496E-07
vn 8.830087E-07 6.993823E-07 -1
vn -8.830087E-07 -6.993823E-07 1
vn 1 -1.937514E-09 3.496911E-07
vn -1 4.823228E-10 -3.496911E-07
vn -7.820457E-14 -1 1.362162E-07
vn -1.53839E-13 1 5.273511E-07
vn 3.584721E-07 1.748456E-07 -1
vn -3.468306E-07 -1.881502E-07 1
vn 0.003947874 -0.001620906 -0.9999909
vn -0.003947857 0.001620856 0.9999909
vn -0.04220288 -0.999108 0.001452538
vn 0.04220282 0.999108 -0.001453434
vn -0.9991012 0.04219734 -0.004014616
vn 0.9991012 -0.04219774 0.004010895
vn 0.001265856 0.03761528 -0.9992915
vn -0.001265819 -0.03761513 0.9992915
vn -0.06626588 -0.9970927 -0.03761657
vn 0.06626588 0.9970927 0.03761657
vn -0.9978011 0.06626762 0.001228018
vn 0.9978011 -0.06626744 -0.001232951
vn 0.9840131 -0.03575956 0.1744688
vn -0.9840131 0.03575956 -0.1744688
vn -0.1677376 0.1431469 0.9753836
vn 0.1677348 -0.1431469 -0.9753841
vn -0.05985393 -0.9890552 0.1348601
vn 0.05985392 0.9890553 -0.1348602
vn 0.725706 0.04964961 0.6862112
vn -0.9117912 0.1091576 0.3958807
vn -0.04324106 0.9023472 0.4288354
vn -0.142844 -0.74354 0.6532564
vn 0.9980002 -0.06133089 0.01530096
vn -0.9980002 0.06133089 -0.01530097
vn -0.03076002 -0.2597278 0.9651918
vn 0.03075723 0.259728 -0.9651919
vn -0.05522199 -0.9637323 -0.2610951
vn 0.05522197 0.9637323 0.2610951
vn 0.8133253 -0.1951012 0.5481219
vn -0.8474474 -0.09304126 0.5226627
vn 0.02888645 0.6578024 0.7526364
vn -0.06300849 -0.9459448 0.3181482
vn 0.9908969 -0.07356438 0.1127457
vn -0.9908969 0.07356438 -0.1127457
vn -0.09478492 0.213492 0.9723359
vn 0.09478215 -0.2134918 -0.9723362
vn -0.09559958 -0.9741712 0.2045756
vn 0.09559956 0.9741712 -0.2045756
vn 0.7719004 0.05721435 0.6331638
vn -0.8770518 0.1796336 0.4455467
vn 0.02696799 0.9289833 0.369138
vn -0.1321193 -0.6921353 0.7095726
vn 0.9796442 0.1060693 -0.1704303
vn -0.9796442 -0.1060693 0.1704303
vn 0.1885094 -0.1942655 0.9626656
vn -0.1885122 0.1942651 -0.9626651
vn 0.06900052 -0.9751976 -0.2103062
vn -0.06900054 0.9751976 0.2103062
vn 0.9196806 -0.01950368 0.3921826
vn -0.7105451 -0.1960143 0.675799
vn 0.04715591 0.7036543 0.708976
vn 0.1619797 -0.9191722 0.3590055
vt 0.04429052 0.09125431
vt 0.05080037 0.08660439
vt 0.0833498 0.1321734
vt 0.07683994 0.1368233
vt -0.04429052 0.09125431
vt -0.07683994 0.1368233
vt -0.0833498 0.1321734
vt -0.05080037 0.08660439
vt -0.04594366 -0.07809726
vt -0.04863437 -0.08563119
vt -0.04110043 -0.08832189
vt -0.03840973 -0.08078796
vt 0.04594367 -0.07809726
vt 0.03840973 -0.08078796
vt 0.04110043 -0.08832189
vt 0.04863437 -0.08563119
vt -0.1292447 -0.03488268
vt -0.1793326 -0.009838724
vt -0.1829103 -0.01699414
vt -0.1328224 -0.0420381
vt 0.1292447 -0.03488268
vt 0.1328224 -0.04203809
vt 0.1829104 -0.01699414
vt 0.1793326 -0.009838721
vt 0.0442904 0.09125438
vt 0.05080026 0.08660447
vt 0.08334963 0.1321735
vt 0.07683976 0.1368234
vt -0.0442904 0.09125438
vt -0.07683976 0.1368234
vt -0.08334963 0.1321735
vt -0.05080026 0.08660447
vt -0.01634594 0.004775974
vt -0.01903663 -0.00275796
vt -0.0115027 -0.005448654
vt -0.008812005 0.00208528
vt 0.01634602 0.004776008
vt 0.008812084 0.002085312
vt 0.01150278 -0.005448622
vt 0.01903671 -0.002757926
vt -0.08988993 0.04382693
vt -0.1399778 0.06887089
vt -0.1435556 0.06171547
vt -0.09346764 0.03667151
vt 0.08988993 0.04382693
vt 0.09346764 0.03667151
vt 0.1435556 0.06171547
vt 0.1399778 0.06887089
vt -0.1702166 -0.02386028
vt -0.1221557 0.06269117
vt -0.1288044 0.06638309
vt -0.1768652 -0.02016837
vt 0.1702166 -0.0238603
vt 0.1768652 -0.02016838
vt 0.1288044 0.06638312
vt 0.1221557 0.06269117
vt -0.05070307 -0.09160674
vt -0.04446005 -0.09390994
vt -0.01019432 -0.001029038
vt -0.01643734 0.001274141
vt 0.0507029 -0.0916068
vt 0.01643723 0.001274097
vt 0.01019419 -0.00102906
vt 0.04445988 -0.09390999
vt -0.06272848 0.1230802
vt -0.06693692 0.1294146
vt -0.07247949 0.1257322
vt -0.06827106 0.1193978
vt 0.06272774 0.1230807
vt 0.06827033 0.1193983
vt 0.07247874 0.1257327
vt 0.06693615 0.1294151
vt -0.146349 -0.0377255
vt -0.09723877 0.04823487
vt -0.103842 0.0520074
vt -0.1529523 -0.03395297
vt 0.146349 -0.0377255
vt 0.1529523 -0.03395298
vt 0.103842 0.05200743
vt 0.09723877 0.04823489
vt -0.05741126 -0.0906819
vt -0.05121298 -0.09310291
vt -0.0151944 -0.0008875872
vt -0.02139268 0.001533407
vt 0.05741125 -0.09068188
vt 0.02139269 0.001533411
vt 0.0151944 -0.0008875723
vt 0.05121298 -0.0931029
vt -0.04424594 0.1010123
vt -0.04853804 0.1072902
vt -0.05403126 0.1035346
vt -0.04973916 0.09725667
vt 0.04424517 0.1010128
vt 0.04973841 0.09725719
vt 0.05403049 0.1035352
vt 0.04853724 0.1072907
vt 0.08400945 0.0792739
vt 0.08460312 0.08007862
vt 0.08017719 0.08334376
vt 0.07958353 0.08253904
vt -0.08400947 0.07927391
vt -0.07958354 0.08253904
vt -0.0801772 0.08334376
vt -0.08460313 0.08007862
vt 0.148772 -0.01824393
vt 0.1493267 -0.01907597
vt 0.1501587 -0.01852128
vt 0.149604 -0.01768923
vt -0.1473853 -0.0179667
vt -0.1498814 -0.0163026
vt -0.1515455 -0.01879876
vt -0.1490494 -0.02046285
vt -0.0246862 -0.09673953
vt -0.0296216 -0.09431222
vt -0.03006293 -0.09520956
vt -0.02512752 -0.09763687
vt 0.02468619 -0.09673953
vt 0.02512752 -0.09763688
vt 0.03006292 -0.09520957
vt 0.0296216 -0.09431222
vt 0.1322553 0.01035783
vt 0.1320523 0.01240936
vt 0.1295849 0.01070288
vt 0.1314329 0.009789003
vt 0.06549937 0.1020472
vt 0.06704747 0.1006859
vt 0.06768711 0.1036169
vt 0.06571258 0.1030242
vt 0.1009617 -0.04646816
vt 0.1029985 -0.04614915
vt 0.1011548 -0.04378251
vt 0.1003472 -0.04567928
vt 0.07165941 -0.1006039
vt 0.06989742 -0.09953366
vt 0.06977927 -0.1025313
vt 0.07162003 -0.1016031
vt 0.05142975 0.09881057
vt 0.05218109 0.09947048
vt 0.04855158 0.1036029
vt 0.04780024 0.102943
vt -0.05142975 0.09881057
vt -0.04780024 0.102943
vt -0.04855158 0.1036029
vt -0.05218109 0.09947048
vt 0.09928589 0.03269008
vt 0.09970488 0.03178208
vt 0.1006129 0.03220107
vt 0.1001939 0.03310906
vt -0.09795889 0.03317916
vt -0.1006829 0.0344361
vt -0.1019398 0.03171211
vt -0.09921583 0.03045517
vt -0.04121971 0.008194652
vt -0.04608866 0.01075264
vt -0.04655375 0.009867375
vt -0.0416848 0.007309389
vt 0.04121971 0.008194653
vt 0.0416848 0.007309391
vt 0.04655375 0.009867376
vt 0.04608866 0.01075264
vt 0.08177625 0.0727865
vt 0.08192249 0.07484286
vt 0.07920246 0.0735774
vt 0.08086958 0.07236467
vt 0.0695128 0.08945404
vt 0.07101285 0.08803989
vt 0.07175358 0.090947
vt 0.0697597 0.09042308
vt 0.0864798 0.04422272
vt 0.08853114 0.04442776
vt 0.0868222 0.04689344
vt 0.08591016 0.04504461
vt 0.01705852 -0.01520079
vt 0.01546289 -0.01389543
vt 0.01492808 -0.01684737
vt 0.01688025 -0.01618477
vt 0.0800785 0.1164494
vt 0.08053376 0.1173397
vt 0.07563679 0.1198437
vt 0.07518153 0.1189533
vt -0.0800785 0.1164494
vt -0.07518154 0.1189533
vt -0.0756368 0.1198437
vt -0.08053376 0.1173397
vt 0.1231711 0.06872257
vt 0.1237541 0.0679101
vt 0.1245666 0.06849311
vt 0.1239836 0.06930558
vt -0.1217757 0.06895194
vt -0.1242131 0.07070094
vt -0.1259621 0.06826353
vt -0.1235247 0.06651453
vt 0.01166212 -0.02129429
vt 0.006498708 -0.01939977
vt 0.006154253 -0.02033858
vt 0.01131766 -0.02223309
vt -0.01166212 -0.02129428
vt -0.01131766 -0.02223309
vt -0.006154249 -0.02033857
vt -0.006498704 -0.01939977
vt 0.1208601 0.07545191
vt 0.120473 0.07747678
vt 0.1181695 0.0755548
vt 0.1200923 0.07481125
vt 0.04485636 0.132771
vt 0.04623089 0.1312346
vt 0.04721584 0.1340683
vt 0.04518468 0.1337156
vt 0.06510197 0.02503574
vt 0.06715184 0.0252549
vt 0.06542599 0.02770876
vt 0.06452668 0.02585369
vt 0.08946873 -0.007744539
vt 0.08758131 -0.006915302
vt 0.08785836 -0.009902481
vt 0.08956109 -0.008740264
vt 0.03886041 0.1488245
vt 0.0394526 0.1496303
vt 0.03502069 0.1528873
vt 0.03442851 0.1520815
vt -0.03886041 0.1488245
vt -0.03442851 0.1520815
vt -0.0350207 0.1528873
vt -0.0394526 0.1496303
vt 0.1579197 -0.02578399
vt 0.1582194 -0.02673804
vt 0.1591735 -0.02643836
vt 0.1588738 -0.02548432
vt -0.156666 -0.02512949
vt -0.1595281 -0.02423048
vt -0.1604271 -0.02709261
vt -0.157565 -0.02799162
vt -0.07153933 -0.05730022
vt -0.07689841 -0.05606314
vt -0.07712333 -0.05703751
vt -0.07176426 -0.05827459
vt 0.07153933 -0.05730021
vt 0.07176426 -0.05827459
vt 0.07712333 -0.05703751
vt 0.07689841 -0.05606314
vt 0.1280409 0.06682757
vt 0.1282637 0.06887704
vt 0.1254984 0.06771389
vt 0.1271191 0.06643985
vt 0.168473 0.023814
vt 0.1688974 0.0217966
vt 0.171165 0.02376077
vt 0.1692289 0.02446872
vt 0.1487399 -0.02317742
vt 0.1507767 -0.02349633
vt 0.1497448 -0.02067937
vt 0.148396 -0.02223843
vt 0.02614775 -0.07240038
vt 0.02436309 -0.0713684
vt 0.0243096 -0.07436793
vt 0.02612992 -0.07340022
o group320382041
g mesh320382041
usemtl mat20
f 4/4/1 3/3/1 2/2/1 1/1/1
f 8/8/2 7/7/2 6/6/2 5/5/2
f 2/12/3 8/11/3 5/10/3 1/9/3
f 6/16/4 7/15/4 3/14/4 4/13/4
f 5/20/5 6/19/5 4/18/5 1/17/5
f 3/24/6 7/23/6 8/22/6 2/21/6
o group251762872
g mesh251762872
usemtl mat20
f 12/28/7 11/27/7 10/26/7 9/25/7
f 16/32/8 15/31/8 14/30/8 13/29/8
f 10/36/9 16/35/9 13/34/9 9/33/9
f 14/40/10 15/39/10 11/38/10 12/37/10
f 13/44/11 14/43/11 12/42/11 9/41/11
f 11/48/12 15/47/12 16/46/12 10/45/12
o group1089299160
g mesh1089299160
usemtl mat20
f 20/52/13 19/51/13 18/50/13 17/49/13
f 24/56/14 23/55/14 22/54/14 21/53/14
f 18/60/15 24/59/15 21/58/15 17/57/15
f 22/64/16 23/63/16 19/62/16 20/61/16
f 21/68/17 22/67/17 20/66/17 17/65/17
f 19/72/18 23/71/18 24/70/18 18/69/18
o group1665241248
g mesh1665241248
usemtl mat20
f 28/76/19 27/75/19 26/74/19 25/73/19
f 32/80/20 31/79/20 30/78/20 29/77/20
f 26/84/21 32/83/21 29/82/21 25/81/21
f 30/88/22 31/87/22 27/86/22 28/85/22
f 29/92/23 30/91/23 28/90/23 25/89/23
f 27/96/24 31/95/24 32/94/24 26/93/24
o group2106241547
g mesh2106241547
usemtl mat16
f 36/100/25 35/99/25 34/98/25 33/97/25
f 40/104/26 39/103/26 38/102/26 37/101/26
f 34/108/27 40/107/27 37/106/27 33/105/27
f 44/112/28 43/111/28 42/110/28 41/109/28
f 37/116/29 38/115/29 36/114/29 33/113/29
f 35/120/30 39/119/30 40/118/30 34/117/30
f 36/124/31 41/123/31 42/122/31 35/121/31
f 39/128/32 43/127/32 44/126/32 38/125/32
f 35/132/33 42/131/33 43/130/33 39/129/33
f 38/136/34 44/135/34 41/134/34 36/133/34
o group1276911870
g mesh1276911870
usemtl mat16
f 48/140/35 47/139/35 46/138/35 45/137/35
f 52/144/36 51/143/36 50/142/36 49/141/36
f 46/148/37 52/147/37 49/146/37 45/145/37
f 56/152/38 55/151/38 54/150/38 53/149/38
f 49/156/39 50/155/39 48/154/39 45/153/39
f 47/160/40 51/159/40 52/158/40 46/157/40
f 48/164/41 53/163/41 54/162/41 47/161/41
f 51/168/42 55/167/42 56/166/42 50/165/42
f 47/172/43 54/171/43 55/170/43 51/169/43
f 50/176/44 56/175/44 53/174/44 48/173/44
o group423761238
g mesh423761238
usemtl mat16
f 60/180/45 59/179/45 58/178/45 57/177/45
f 64/184/46 63/183/46 62/182/46 61/181/46
f 58/188/47 64/187/47 61/186/47 57/185/47
f 68/192/48 67/191/48 66/190/48 65/189/48
f 61/196/49 62/195/49 60/194/49 57/193/49
f 59/200/50 63/199/50 64/198/50 58/197/50
f 60/204/51 65/203/51 66/202/51 59/201/51
f 63/208/52 67/207/52 68/206/52 62/205/52
f 59/212/53 66/211/53 67/210/53 63/209/53
f 62/216/54 68/215/54 65/214/54 60/213/54
o group888554014
g mesh888554014
usemtl mat16
f 72/220/55 71/219/55 70/218/55 69/217/55
f 76/224/56 75/223/56 74/222/56 73/221/56
f 70/228/57 76/227/57 73/226/57 69/225/57
f 80/232/58 79/231/58 78/230/58 77/229/58
f 73/236/59 74/235/59 72/234/59 69/233/59
f 71/240/60 75/239/60 76/238/60 70/237/60
f 72/244/61 77/243/61 78/242/61 71/241/61
f 75/248/62 79/247/62 80/246/62 74/245/62
f 71/252/63 78/251/63 79/250/63 75/249/63
f 74/256/64 80/255/64 77/254/64 72/253/64
